<svg width="14" height="14" viewBox="0 0 14 14" fill="none" xmlns="http://www.w3.org/2000/svg">
<path opacity="0.01" fill-rule="evenodd" clip-rule="evenodd" d="M3.05176e-05 0H14V14H3.05176e-05V0Z" fill="#141124"/>
<path fill-rule="evenodd" clip-rule="evenodd" d="M8.44067 9.6427C8.26982 9.47184 8.26982 9.19483 8.44067 9.02398L10.0271 7.4375H2.9167C2.67508 7.4375 2.4792 7.24163 2.4792 7C2.4792 6.75838 2.67508 6.5625 2.9167 6.5625H10.0271L8.44067 4.97603C8.26982 4.80518 8.26982 4.52817 8.44067 4.35731C8.61153 4.18646 8.88854 4.18646 9.05939 4.35731L11.3927 6.69065C11.5636 6.8615 11.5636 7.13851 11.3927 7.30936L9.05939 9.6427C8.88854 9.81355 8.61153 9.81355 8.44067 9.6427Z" fill="white"/>
</svg>
