<svg width="8" height="10" viewBox="0 0 8 10" fill="none" xmlns="http://www.w3.org/2000/svg">
<path d="M5.25003 0.3125C5.25003 0.895182 5.35745 1.43229 5.5723 1.92383C5.78714 2.41536 6.09638 2.86784 6.50003 3.28125C6.90368 3.69466 7.21292 4.14714 7.42776 4.63867C7.64261 5.13021 7.75003 5.66732 7.75003 6.25C7.75003 6.59505 7.70609 6.92708 7.61819 7.24609C7.5303 7.5651 7.40335 7.86296 7.23734 8.13965C7.07132 8.41634 6.87601 8.67025 6.6514 8.90137C6.42679 9.13249 6.17451 9.3278 5.89456 9.4873C5.61461 9.64681 5.31513 9.77214 4.99612 9.86328C4.67711 9.95443 4.34508 10 4.00003 10C3.65498 10 3.32295 9.95605 3.00394 9.86816C2.68493 9.78027 2.38707 9.65332 2.11038 9.4873C1.83369 9.32129 1.57978 9.12598 1.34866 8.90137C1.11754 8.67676 0.922231 8.42448 0.762726 8.14453C0.603221 7.86458 0.477895 7.5651 0.386749 7.24609C0.295603 6.92708 0.250031 6.59505 0.250031 6.25C0.250031 5.97656 0.279327 5.70801 0.337921 5.44434C0.396515 5.18066 0.48115 4.92839 0.591827 4.6875C0.702504 4.44661 0.839223 4.21712 1.00198 3.99902C1.16474 3.78092 1.34866 3.58398 1.55374 3.4082C1.57653 3.5319 1.60745 3.65885 1.64651 3.78906C1.68558 3.91927 1.73115 4.04948 1.78323 4.17969C1.83532 4.3099 1.89717 4.43359 1.96878 4.55078C2.0404 4.66797 2.11526 4.77702 2.19339 4.87793C2.25849 4.95931 2.34313 5 2.4473 5C2.53519 5 2.60843 4.96908 2.66702 4.90723C2.72562 4.84538 2.75654 4.77051 2.7598 4.68262C2.7598 4.64681 2.75491 4.61426 2.74515 4.58496C2.73538 4.55566 2.71911 4.52637 2.69632 4.49707C2.60517 4.36361 2.52542 4.23177 2.45706 4.10156C2.3887 3.97135 2.32848 3.83789 2.2764 3.70117C2.22431 3.56445 2.18688 3.42285 2.16409 3.27637C2.14131 3.12988 2.12829 2.97526 2.12503 2.8125C2.12503 2.42513 2.19827 2.06055 2.34476 1.71875C2.49124 1.37695 2.69306 1.0791 2.95023 0.825195C3.20739 0.571289 3.50524 0.371094 3.84378 0.224609C4.18232 0.078125 4.54691 0.00325521 4.93753 0H5.25003V0.3125ZM4.00003 9.375C4.43297 9.375 4.83825 9.29362 5.21585 9.13086C5.59345 8.9681 5.92549 8.74512 6.21194 8.46191C6.4984 8.17871 6.72138 7.84831 6.88089 7.4707C7.0404 7.0931 7.12178 6.6862 7.12503 6.25C7.12503 5.75846 7.03388 5.30111 6.85159 4.87793C6.6693 4.45475 6.40563 4.07064 6.06058 3.72559C5.6374 3.29915 5.30537 2.82878 5.06448 2.31445C4.8236 1.80013 4.68037 1.24349 4.6348 0.644531C4.36461 0.680339 4.11559 0.761719 3.88773 0.888672C3.65986 1.01562 3.45967 1.17676 3.28714 1.37207C3.11461 1.56738 2.98278 1.78711 2.89163 2.03125C2.80049 2.27539 2.75329 2.53581 2.75003 2.8125C2.75003 3.06641 2.78747 3.2959 2.86234 3.50098C2.93721 3.70605 3.04788 3.91113 3.19437 4.11621C3.25622 4.20085 3.30342 4.28874 3.33597 4.37988C3.36852 4.47103 3.38642 4.57194 3.38968 4.68262C3.38968 4.81283 3.36526 4.9349 3.31644 5.04883C3.26761 5.16276 3.19925 5.26204 3.11136 5.34668C3.02347 5.43131 2.92418 5.49967 2.81351 5.55176C2.70283 5.60384 2.58076 5.62826 2.4473 5.625C2.29756 5.625 2.16572 5.59733 2.05179 5.54199C1.93786 5.48665 1.83694 5.41178 1.74905 5.31738C1.66116 5.22298 1.58304 5.11719 1.51468 5C1.44632 4.88281 1.38122 4.76562 1.31937 4.64844C1.16963 4.88607 1.05895 5.1416 0.987335 5.41504C0.915721 5.68848 0.878286 5.9668 0.875031 6.25C0.875031 6.68294 0.956411 7.08822 1.11917 7.46582C1.28193 7.84342 1.50491 8.17546 1.78812 8.46191C2.07132 8.74837 2.40172 8.97135 2.77933 9.13086C3.15693 9.29036 3.56383 9.37175 4.00003 9.375Z" fill="white"/>
</svg>
